<svg width="441" height="94" viewBox="0 0 441 94" fill="none" xmlns="http://www.w3.org/2000/svg">
<path d="M87.6307 73.0382C70.731 73.0382 58.9215 66.5549 58.9215 52.5645C58.9215 37.4652 76.5339 18.8682 103.105 18.8682C120.005 18.8682 131.814 25.4369 131.814 39.4272C131.814 54.5266 114.202 73.0382 87.6307 73.0382ZM102.189 20.4037C87.2234 20.4037 76.5339 37.4652 76.5339 53.7588C76.5339 66.6402 81.5223 71.588 88.5469 71.588C103.512 71.588 114.202 54.5266 114.202 38.2329C114.202 25.3515 109.213 20.4037 102.189 20.4037Z" fill="black"/>
<path d="M414.386 74.3935C410.17 74.3935 406.397 73.7123 403.065 72.3497C399.802 70.9191 397.014 68.9775 394.703 66.525C392.459 64.0724 390.725 61.143 389.501 57.7367C388.346 54.3304 387.768 50.5835 387.768 46.496C387.768 42.4765 388.346 38.7637 389.501 35.3574C390.725 31.9511 392.459 29.0217 394.703 26.5691C397.014 24.1166 399.802 22.2091 403.065 20.8466C406.397 19.4159 410.17 18.7006 414.386 18.7006C418.601 18.7006 422.341 19.4159 425.604 20.8466C428.936 22.2091 431.723 24.1166 433.967 26.5691C436.279 29.0217 438.012 31.9511 439.168 35.3574C440.392 38.7637 441.004 42.4765 441.004 46.496C441.004 50.5835 440.392 54.3304 439.168 57.7367C438.012 61.143 436.279 64.0724 433.967 66.525C431.723 68.9775 428.936 70.9191 425.604 72.3497C422.341 73.7123 418.601 74.3935 414.386 74.3935ZM414.386 65.1965C416.969 65.1965 419.213 64.6515 421.117 63.5615C423.021 62.4715 424.584 61.0408 425.808 59.2696C427.032 57.4983 427.916 55.5226 428.46 53.3426C429.072 51.0945 429.378 48.8122 429.378 46.496C429.378 44.2478 429.072 41.9997 428.46 39.7515C427.916 37.5033 427.032 35.5277 425.808 33.8245C424.584 32.0533 423.021 30.6226 421.117 29.5326C419.213 28.4426 416.969 27.8976 414.386 27.8976C411.802 27.8976 409.558 28.4426 407.655 29.5326C405.751 30.6226 404.187 32.0533 402.963 33.8245C401.74 35.5277 400.822 37.5033 400.21 39.7515C399.666 41.9997 399.394 44.2478 399.394 46.496C399.394 48.8122 399.666 51.0945 400.21 53.3426C400.822 55.5226 401.74 57.4983 402.963 59.2696C404.187 61.0408 405.751 62.4715 407.655 63.5615C409.558 64.6515 411.802 65.1965 414.386 65.1965Z" fill="black"/>
<path d="M358.194 20.1312H369.106V30.3501H369.31C369.65 28.9195 370.296 27.5229 371.248 26.1604C372.268 24.7979 373.457 23.5716 374.817 22.4816C376.245 21.3234 377.809 20.4037 379.509 19.7225C381.208 19.0412 382.942 18.7006 384.71 18.7006C386.07 18.7006 386.987 18.7347 387.463 18.8028C388.007 18.8709 388.551 18.939 389.095 19.0072V30.2479C388.279 30.1117 387.429 30.0095 386.545 29.9414C385.73 29.8051 384.914 29.737 384.098 29.737C382.126 29.737 380.256 30.1457 378.489 30.9633C376.789 31.7126 375.293 32.8708 374.001 34.4377C372.71 35.9364 371.69 37.8099 370.942 40.0581C370.194 42.3062 369.82 44.895 369.82 47.8244V72.9629H358.194V20.1312Z" fill="black"/>
<path d="M241.671 0H253.297V26.9779H253.501C254.317 25.6835 255.303 24.5253 256.459 23.5034C257.615 22.4816 258.872 21.63 260.232 20.9487C261.66 20.1993 263.122 19.6543 264.618 19.3137C266.181 18.9049 267.711 18.7006 269.207 18.7006C273.354 18.7006 276.958 19.4499 280.017 20.9487C283.145 22.3794 285.729 24.3891 287.768 26.9779C289.808 29.4985 291.338 32.462 292.358 35.8683C293.377 39.2746 293.887 42.9193 293.887 46.8025C293.887 50.3451 293.411 53.7854 292.46 57.1236C291.576 60.4617 290.182 63.4252 288.278 66.014C286.442 68.5347 284.097 70.5784 281.241 72.1453C278.386 73.6441 275.02 74.3935 271.145 74.3935C269.377 74.3935 267.575 74.2572 265.739 73.9847C263.972 73.7804 262.272 73.3375 260.64 72.6563C259.008 71.975 257.513 71.0894 256.153 69.9994C254.861 68.9094 253.773 67.4787 252.889 65.7074H252.685V72.9628H241.671V0ZM282.261 46.5981C282.261 44.2137 281.955 41.8974 281.343 39.6493C280.731 37.4011 279.813 35.4255 278.59 33.7223C277.366 31.9511 275.836 30.5545 274 29.5326C272.165 28.4426 270.057 27.8976 267.677 27.8976C262.782 27.8976 259.076 29.6007 256.561 33.007C254.113 36.4133 252.889 40.9437 252.889 46.5981C252.889 49.255 253.195 51.7416 253.807 54.0579C254.487 56.3061 255.473 58.2477 256.765 59.8827C258.057 61.5177 259.586 62.8121 261.354 63.7659C263.19 64.7196 265.298 65.1965 267.677 65.1965C270.329 65.1965 272.573 64.6515 274.408 63.5615C276.244 62.4715 277.74 61.0749 278.896 59.3717C280.119 57.6005 280.969 55.6248 281.445 53.4448C281.989 51.1966 282.261 48.9144 282.261 46.5981Z" fill="black"/>
<path d="M184.707 20.1313H197.455L211.223 59.5762H211.427L224.787 20.1313H236.923L216.424 75.8242C215.472 78.2086 214.52 80.4908 213.568 82.6709C212.685 84.8509 211.563 86.7584 210.203 88.3934C208.911 90.0966 207.279 91.425 205.308 92.3788C203.336 93.4007 200.82 93.9116 197.761 93.9116C195.041 93.9116 192.356 93.7073 189.704 93.2985V83.4884C190.656 83.6246 191.574 83.7609 192.458 83.8971C193.341 84.1015 194.259 84.2037 195.211 84.2037C196.571 84.2037 197.693 84.0334 198.577 83.6927C199.461 83.3521 200.174 82.8412 200.718 82.1599C201.33 81.5468 201.84 80.7974 202.248 79.9118C202.656 79.0261 203.03 78.0042 203.37 76.8461L204.696 72.7585L184.707 20.1313Z" fill="black"/>
<path d="M151.958 45.1675L133.703 20.1313H147.777L158.791 36.3793L170.315 20.1313H183.778L165.828 44.5544L186.021 72.9629H172.049L158.689 53.4448L145.737 72.9629H132.071L151.958 45.1675Z" fill="black"/>
<path d="M0 20.1312H11.0144V27.2845H11.2184C12.8501 24.2188 15.1278 22.0388 18.0514 20.7444C20.9749 19.3818 24.1365 18.7006 27.536 18.7006C31.6834 18.7006 35.2869 19.45 38.3464 20.9487C41.474 22.3794 44.0576 24.3891 46.0973 26.9779C48.137 29.4985 49.6668 32.462 50.6866 35.8683C51.7065 39.2746 52.2164 42.9194 52.2164 46.8025C52.2164 50.3451 51.7405 53.7854 50.7886 57.1236C49.9047 60.4618 48.5109 63.4252 46.6072 66.014C44.7715 68.5347 42.4258 70.5785 39.5702 72.1454C36.7147 73.6441 33.3491 74.3935 29.4737 74.3935C27.774 74.3935 26.0742 74.2232 24.3745 73.8826C22.6747 73.6101 21.0429 73.1332 19.4792 72.4519C17.9154 71.7707 16.4536 70.9191 15.0938 69.8972C13.802 68.8072 12.7141 67.5469 11.8303 66.1162H11.6263V92.4809H0V20.1312ZM40.5901 46.5981C40.5901 44.2137 40.2841 41.8975 39.6722 39.6493C39.0603 37.4012 38.1424 35.4255 36.9186 33.7224C35.6948 31.9511 34.165 30.5545 32.3293 29.5326C30.4936 28.4426 28.3859 27.8976 26.0062 27.8976C21.1109 27.8976 17.4055 29.6007 14.8898 33.007C12.4422 36.4133 11.2184 40.9437 11.2184 46.5981C11.2184 49.2551 11.5243 51.7417 12.1362 54.0579C12.8161 56.3061 13.802 58.2477 15.0938 59.8827C16.3856 61.5177 17.9154 62.8121 19.6831 63.7659C21.5189 64.7196 23.6266 65.1965 26.0062 65.1965C28.6578 65.1965 30.9015 64.6515 32.7372 63.5615C34.573 62.4715 36.0687 61.0749 37.2246 59.3718C38.4484 57.6005 39.2983 55.6248 39.7742 53.4448C40.3181 51.1966 40.5901 48.9144 40.5901 46.5981Z" fill="black"/>
<path d="M348.198 72.9172H336.776V65.5596H336.572C335.144 68.2165 333.002 70.3624 330.147 71.9975C327.359 73.5643 324.504 74.3478 321.58 74.3478C314.645 74.3478 309.614 72.6447 306.486 69.2384C303.427 65.7639 301.897 60.5523 301.897 53.6035V20.0855H313.523V52.4794C313.523 57.1119 314.407 60.382 316.175 62.2895C317.943 64.197 320.424 65.1508 323.62 65.1508C326.067 65.1508 328.107 64.7761 329.739 64.0267C331.371 63.2773 332.697 62.2895 333.716 61.0632C334.736 59.7689 335.45 58.236 335.858 56.4647C336.334 54.6935 336.572 52.7859 336.572 50.7422V20.0855H348.198V72.9172Z" fill="black"/>
<path d="M320.728 10.6514C320.728 13.8448 318.144 16.4336 314.957 16.4336C311.77 16.4336 309.186 13.8448 309.186 10.6514C309.186 7.45799 311.77 4.86922 314.957 4.86922C318.144 4.86922 320.728 7.45799 320.728 10.6514Z" fill="black"/>
<path d="M340.166 10.6514C340.166 13.8448 337.582 16.4336 334.395 16.4336C331.208 16.4336 328.624 13.8448 328.624 10.6514C328.624 7.45799 331.208 4.86922 334.395 4.86922C337.582 4.86922 340.166 7.45799 340.166 10.6514Z" fill="black"/>
</svg>
